<mxfile host="www.draw.io" modified="2019-10-29T22:36:31.342Z" agent="Mozilla/5.0 (Macintosh; Intel Mac OS X 10_15_0) AppleWebKit/537.36 (KHTML, like Gecko) Chrome/78.0.3904.70 Safari/537.36" etag="QfTfkHToVs1gsopkBY1Y" version="12.1.8" type="github" pages="1">
  <diagram id="33pAHRBaygsrBo-YD6yc" name="Page-1">
    <mxGraphModel dx="1694" dy="1067" grid="1" gridSize="10" guides="1" tooltips="1" connect="1" arrows="1" fold="1" page="1" pageScale="1" pageWidth="826" pageHeight="1169" math="0" shadow="0">
      <root>
        <mxCell id="0"/>
        <mxCell id="1" parent="0"/>
        <mxCell id="IJlg6Fpexey7xzd7SDqX-3" value="" style="edgeStyle=orthogonalEdgeStyle;rounded=0;orthogonalLoop=1;jettySize=auto;html=1;" edge="1" parent="1">
          <mxGeometry relative="1" as="geometry">
            <mxPoint x="290" y="360.0000000000002" as="sourcePoint"/>
            <mxPoint x="250" y="360.0000000000002" as="targetPoint"/>
          </mxGeometry>
        </mxCell>
        <mxCell id="IJlg6Fpexey7xzd7SDqX-4" value="Вход в приложение" style="ellipse;whiteSpace=wrap;html=1;aspect=fixed;fillColor=#d5e8d4;strokeColor=#82b366;" vertex="1" parent="1">
          <mxGeometry x="160" y="320" width="80" height="80" as="geometry"/>
        </mxCell>
        <mxCell id="IJlg6Fpexey7xzd7SDqX-20" value="" style="edgeStyle=orthogonalEdgeStyle;rounded=0;orthogonalLoop=1;jettySize=auto;html=1;fontSize=25;" edge="1" parent="1" source="IJlg6Fpexey7xzd7SDqX-6" target="IJlg6Fpexey7xzd7SDqX-41">
          <mxGeometry relative="1" as="geometry">
            <mxPoint x="450" y="360" as="targetPoint"/>
          </mxGeometry>
        </mxCell>
        <mxCell id="IJlg6Fpexey7xzd7SDqX-6" value="Раздел покупки номера" style="rounded=1;whiteSpace=wrap;html=1;" vertex="1" parent="1">
          <mxGeometry x="290" y="330" width="120" height="60" as="geometry"/>
        </mxCell>
        <mxCell id="IJlg6Fpexey7xzd7SDqX-7" value="" style="rounded=0;whiteSpace=wrap;html=1;rotation=90;" vertex="1" parent="1">
          <mxGeometry x="-253" y="390" width="646" height="60" as="geometry"/>
        </mxCell>
        <mxCell id="IJlg6Fpexey7xzd7SDqX-8" value="User case" style="text;html=1;resizable=0;points=[];autosize=1;align=left;verticalAlign=top;spacingTop=-4;rotation=-90;fontSize=25;" vertex="1" parent="1">
          <mxGeometry x="30" y="436" width="70" height="20" as="geometry"/>
        </mxCell>
        <mxCell id="IJlg6Fpexey7xzd7SDqX-26" value="" style="edgeStyle=orthogonalEdgeStyle;rounded=0;orthogonalLoop=1;jettySize=auto;html=1;fontSize=25;exitX=0.5;exitY=0;exitDx=0;exitDy=0;" edge="1" parent="1" source="IJlg6Fpexey7xzd7SDqX-41" target="IJlg6Fpexey7xzd7SDqX-45">
          <mxGeometry relative="1" as="geometry">
            <mxPoint x="641.4705882352941" y="331.58823529411757" as="sourcePoint"/>
            <mxPoint x="645" y="280" as="targetPoint"/>
            <Array as="points">
              <mxPoint x="511" y="305"/>
              <mxPoint x="680" y="305"/>
            </Array>
          </mxGeometry>
        </mxCell>
        <mxCell id="IJlg6Fpexey7xzd7SDqX-35" value="" style="edgeStyle=orthogonalEdgeStyle;rounded=0;orthogonalLoop=1;jettySize=auto;html=1;fontSize=25;exitX=0.5;exitY=1;exitDx=0;exitDy=0;entryX=0.25;entryY=0;entryDx=0;entryDy=0;" edge="1" parent="1" source="IJlg6Fpexey7xzd7SDqX-41" target="IJlg6Fpexey7xzd7SDqX-70">
          <mxGeometry relative="1" as="geometry">
            <mxPoint x="641.4705882352941" y="387.89647058823516" as="sourcePoint"/>
            <mxPoint x="685" y="450.41176470588243" as="targetPoint"/>
          </mxGeometry>
        </mxCell>
        <mxCell id="IJlg6Fpexey7xzd7SDqX-47" value="" style="edgeStyle=orthogonalEdgeStyle;rounded=0;orthogonalLoop=1;jettySize=auto;html=1;fontSize=25;" edge="1" parent="1" source="IJlg6Fpexey7xzd7SDqX-41" target="IJlg6Fpexey7xzd7SDqX-46">
          <mxGeometry relative="1" as="geometry"/>
        </mxCell>
        <mxCell id="IJlg6Fpexey7xzd7SDqX-69" style="edgeStyle=orthogonalEdgeStyle;rounded=0;orthogonalLoop=1;jettySize=auto;html=1;exitX=0.25;exitY=1;exitDx=0;exitDy=0;entryX=0;entryY=0.5;entryDx=0;entryDy=0;fontSize=25;" edge="1" parent="1" source="IJlg6Fpexey7xzd7SDqX-41" target="IJlg6Fpexey7xzd7SDqX-67">
          <mxGeometry relative="1" as="geometry"/>
        </mxCell>
        <mxCell id="IJlg6Fpexey7xzd7SDqX-41" value="Настройка фильтров" style="rounded=1;whiteSpace=wrap;html=1;" vertex="1" parent="1">
          <mxGeometry x="452" y="330" width="118" height="60" as="geometry"/>
        </mxCell>
        <mxCell id="IJlg6Fpexey7xzd7SDqX-72" value="" style="edgeStyle=orthogonalEdgeStyle;rounded=0;orthogonalLoop=1;jettySize=auto;html=1;fontSize=25;" edge="1" parent="1" source="IJlg6Fpexey7xzd7SDqX-67" target="IJlg6Fpexey7xzd7SDqX-71">
          <mxGeometry relative="1" as="geometry"/>
        </mxCell>
        <mxCell id="IJlg6Fpexey7xzd7SDqX-74" value="" style="edgeStyle=orthogonalEdgeStyle;rounded=0;orthogonalLoop=1;jettySize=auto;html=1;fontSize=25;" edge="1" parent="1" source="IJlg6Fpexey7xzd7SDqX-67" target="IJlg6Fpexey7xzd7SDqX-73">
          <mxGeometry relative="1" as="geometry"/>
        </mxCell>
        <mxCell id="IJlg6Fpexey7xzd7SDqX-76" value="" style="edgeStyle=orthogonalEdgeStyle;rounded=0;orthogonalLoop=1;jettySize=auto;html=1;fontSize=25;entryX=0.5;entryY=0;entryDx=0;entryDy=0;" edge="1" parent="1" source="IJlg6Fpexey7xzd7SDqX-67" target="IJlg6Fpexey7xzd7SDqX-75">
          <mxGeometry relative="1" as="geometry">
            <Array as="points">
              <mxPoint x="609" y="540"/>
              <mxPoint x="469" y="540"/>
            </Array>
          </mxGeometry>
        </mxCell>
        <mxCell id="IJlg6Fpexey7xzd7SDqX-67" value="Выбор по категориям" style="rounded=1;whiteSpace=wrap;html=1;" vertex="1" parent="1">
          <mxGeometry x="550" y="554" width="118" height="60" as="geometry"/>
        </mxCell>
        <mxCell id="IJlg6Fpexey7xzd7SDqX-82" value="" style="edgeStyle=orthogonalEdgeStyle;rounded=0;orthogonalLoop=1;jettySize=auto;html=1;fontSize=25;" edge="1" parent="1" source="IJlg6Fpexey7xzd7SDqX-75" target="IJlg6Fpexey7xzd7SDqX-81">
          <mxGeometry relative="1" as="geometry"/>
        </mxCell>
        <mxCell id="IJlg6Fpexey7xzd7SDqX-75" value="Simple" style="rounded=1;whiteSpace=wrap;html=1;" vertex="1" parent="1">
          <mxGeometry x="410" y="650" width="118" height="60" as="geometry"/>
        </mxCell>
        <mxCell id="IJlg6Fpexey7xzd7SDqX-97" value="" style="edgeStyle=orthogonalEdgeStyle;rounded=0;orthogonalLoop=1;jettySize=auto;html=1;fontSize=25;" edge="1" parent="1" source="IJlg6Fpexey7xzd7SDqX-81" target="IJlg6Fpexey7xzd7SDqX-96">
          <mxGeometry relative="1" as="geometry"/>
        </mxCell>
        <mxCell id="IJlg6Fpexey7xzd7SDqX-81" value="Выбор номера" style="rounded=1;whiteSpace=wrap;html=1;" vertex="1" parent="1">
          <mxGeometry x="1060" y="325" width="118" height="60" as="geometry"/>
        </mxCell>
        <mxCell id="IJlg6Fpexey7xzd7SDqX-99" value="" style="edgeStyle=orthogonalEdgeStyle;rounded=0;orthogonalLoop=1;jettySize=auto;html=1;fontSize=25;" edge="1" parent="1" source="IJlg6Fpexey7xzd7SDqX-96" target="IJlg6Fpexey7xzd7SDqX-98">
          <mxGeometry relative="1" as="geometry"/>
        </mxCell>
        <mxCell id="IJlg6Fpexey7xzd7SDqX-96" value="Заполнение формы" style="rounded=1;whiteSpace=wrap;html=1;" vertex="1" parent="1">
          <mxGeometry x="1200" y="325" width="118" height="60" as="geometry"/>
        </mxCell>
        <mxCell id="IJlg6Fpexey7xzd7SDqX-101" value="" style="edgeStyle=orthogonalEdgeStyle;rounded=0;orthogonalLoop=1;jettySize=auto;html=1;fontSize=25;" edge="1" parent="1" source="IJlg6Fpexey7xzd7SDqX-98" target="IJlg6Fpexey7xzd7SDqX-100">
          <mxGeometry relative="1" as="geometry">
            <Array as="points">
              <mxPoint x="1490" y="355"/>
            </Array>
          </mxGeometry>
        </mxCell>
        <mxCell id="IJlg6Fpexey7xzd7SDqX-103" value="" style="edgeStyle=orthogonalEdgeStyle;rounded=0;orthogonalLoop=1;jettySize=auto;html=1;fontSize=25;" edge="1" parent="1" source="IJlg6Fpexey7xzd7SDqX-98" target="IJlg6Fpexey7xzd7SDqX-102">
          <mxGeometry relative="1" as="geometry">
            <Array as="points">
              <mxPoint x="1399" y="400"/>
              <mxPoint x="1290" y="400"/>
            </Array>
          </mxGeometry>
        </mxCell>
        <mxCell id="IJlg6Fpexey7xzd7SDqX-98" value="Выбрать режим покупки" style="rounded=1;whiteSpace=wrap;html=1;" vertex="1" parent="1">
          <mxGeometry x="1340" y="325" width="118" height="60" as="geometry"/>
        </mxCell>
        <mxCell id="IJlg6Fpexey7xzd7SDqX-105" value="" style="edgeStyle=orthogonalEdgeStyle;rounded=0;orthogonalLoop=1;jettySize=auto;html=1;fontSize=25;" edge="1" parent="1" source="IJlg6Fpexey7xzd7SDqX-102" target="IJlg6Fpexey7xzd7SDqX-104">
          <mxGeometry relative="1" as="geometry">
            <Array as="points">
              <mxPoint x="1230" y="466"/>
            </Array>
          </mxGeometry>
        </mxCell>
        <mxCell id="IJlg6Fpexey7xzd7SDqX-102" value="Доставка на дом" style="rounded=1;whiteSpace=wrap;html=1;" vertex="1" parent="1">
          <mxGeometry x="1238" y="436" width="118" height="60" as="geometry"/>
        </mxCell>
        <mxCell id="IJlg6Fpexey7xzd7SDqX-109" value="" style="edgeStyle=orthogonalEdgeStyle;rounded=0;orthogonalLoop=1;jettySize=auto;html=1;fontSize=25;" edge="1" parent="1" source="IJlg6Fpexey7xzd7SDqX-104" target="IJlg6Fpexey7xzd7SDqX-108">
          <mxGeometry relative="1" as="geometry"/>
        </mxCell>
        <mxCell id="IJlg6Fpexey7xzd7SDqX-104" value="Указать адрес, контактный номер и оплата сервиса" style="rounded=1;whiteSpace=wrap;html=1;" vertex="1" parent="1">
          <mxGeometry x="1178" y="520" width="118" height="60" as="geometry"/>
        </mxCell>
        <mxCell id="IJlg6Fpexey7xzd7SDqX-108" value="Отправка заявки" style="rounded=1;whiteSpace=wrap;html=1;" vertex="1" parent="1">
          <mxGeometry x="1296" y="640" width="118" height="60" as="geometry"/>
        </mxCell>
        <mxCell id="IJlg6Fpexey7xzd7SDqX-107" value="" style="edgeStyle=orthogonalEdgeStyle;rounded=0;orthogonalLoop=1;jettySize=auto;html=1;fontSize=25;" edge="1" parent="1" source="IJlg6Fpexey7xzd7SDqX-100" target="IJlg6Fpexey7xzd7SDqX-106">
          <mxGeometry relative="1" as="geometry"/>
        </mxCell>
        <mxCell id="IJlg6Fpexey7xzd7SDqX-100" value="Забрать самостоятельно" style="rounded=1;whiteSpace=wrap;html=1;" vertex="1" parent="1">
          <mxGeometry x="1390" y="436" width="118" height="60" as="geometry"/>
        </mxCell>
        <mxCell id="IJlg6Fpexey7xzd7SDqX-111" value="" style="edgeStyle=orthogonalEdgeStyle;rounded=0;orthogonalLoop=1;jettySize=auto;html=1;fontSize=25;entryX=0.5;entryY=0;entryDx=0;entryDy=0;" edge="1" parent="1" source="IJlg6Fpexey7xzd7SDqX-106" target="IJlg6Fpexey7xzd7SDqX-108">
          <mxGeometry relative="1" as="geometry">
            <mxPoint x="1450" y="670" as="targetPoint"/>
          </mxGeometry>
        </mxCell>
        <mxCell id="IJlg6Fpexey7xzd7SDqX-106" value="Выбрать ближайший филиал к вашему местоположению на карте" style="rounded=1;whiteSpace=wrap;html=1;" vertex="1" parent="1">
          <mxGeometry x="1390" y="520" width="120" height="70" as="geometry"/>
        </mxCell>
        <mxCell id="IJlg6Fpexey7xzd7SDqX-73" value="Business" style="rounded=1;whiteSpace=wrap;html=1;" vertex="1" parent="1">
          <mxGeometry x="565" y="650" width="118" height="60" as="geometry"/>
        </mxCell>
        <mxCell id="IJlg6Fpexey7xzd7SDqX-71" value="VIP" style="rounded=1;whiteSpace=wrap;html=1;" vertex="1" parent="1">
          <mxGeometry x="703" y="650" width="118" height="60" as="geometry"/>
        </mxCell>
        <mxCell id="IJlg6Fpexey7xzd7SDqX-52" value="" style="edgeStyle=orthogonalEdgeStyle;rounded=0;orthogonalLoop=1;jettySize=auto;html=1;fontSize=25;" edge="1" parent="1" source="IJlg6Fpexey7xzd7SDqX-46" target="IJlg6Fpexey7xzd7SDqX-53">
          <mxGeometry relative="1" as="geometry">
            <mxPoint x="848" y="359.9999999999998" as="targetPoint"/>
          </mxGeometry>
        </mxCell>
        <mxCell id="IJlg6Fpexey7xzd7SDqX-46" value="&lt;span style=&quot;font-size: x-small ; text-align: left&quot;&gt;Написать номер который вы хотите и проверить наличие&lt;/span&gt;" style="rounded=1;whiteSpace=wrap;html=1;" vertex="1" parent="1">
          <mxGeometry x="650" y="330" width="118" height="60" as="geometry"/>
        </mxCell>
        <mxCell id="IJlg6Fpexey7xzd7SDqX-50" value="" style="edgeStyle=orthogonalEdgeStyle;rounded=0;orthogonalLoop=1;jettySize=auto;html=1;fontSize=25;" edge="1" parent="1" source="IJlg6Fpexey7xzd7SDqX-45" target="IJlg6Fpexey7xzd7SDqX-81">
          <mxGeometry relative="1" as="geometry">
            <mxPoint x="1120" y="320" as="targetPoint"/>
          </mxGeometry>
        </mxCell>
        <mxCell id="IJlg6Fpexey7xzd7SDqX-45" value="&lt;span style=&quot;font-size: x-small ; text-align: left&quot;&gt;Указать диапазон цен&lt;/span&gt;" style="rounded=1;whiteSpace=wrap;html=1;fontSize=25;" vertex="1" parent="1">
          <mxGeometry x="649" y="220" width="120" height="60" as="geometry"/>
        </mxCell>
        <mxCell id="IJlg6Fpexey7xzd7SDqX-56" value="" style="edgeStyle=orthogonalEdgeStyle;rounded=0;orthogonalLoop=1;jettySize=auto;html=1;fontSize=25;entryX=0;entryY=1;entryDx=0;entryDy=0;" edge="1" parent="1" source="IJlg6Fpexey7xzd7SDqX-53" target="IJlg6Fpexey7xzd7SDqX-61">
          <mxGeometry relative="1" as="geometry">
            <mxPoint x="897.9411764705883" y="304.52941176470586" as="targetPoint"/>
          </mxGeometry>
        </mxCell>
        <mxCell id="IJlg6Fpexey7xzd7SDqX-58" value="" style="edgeStyle=orthogonalEdgeStyle;rounded=0;orthogonalLoop=1;jettySize=auto;html=1;fontSize=25;entryX=0;entryY=0.5;entryDx=0;entryDy=0;" edge="1" parent="1" source="IJlg6Fpexey7xzd7SDqX-53" target="IJlg6Fpexey7xzd7SDqX-62">
          <mxGeometry relative="1" as="geometry">
            <mxPoint x="897.9411764705883" y="416.2941176470588" as="targetPoint"/>
          </mxGeometry>
        </mxCell>
        <mxCell id="IJlg6Fpexey7xzd7SDqX-53" value="" style="rhombus;whiteSpace=wrap;html=1;fontSize=25;" vertex="1" parent="1">
          <mxGeometry x="848" y="335" width="50" height="50" as="geometry"/>
        </mxCell>
        <mxCell id="IJlg6Fpexey7xzd7SDqX-88" value="" style="edgeStyle=orthogonalEdgeStyle;rounded=0;orthogonalLoop=1;jettySize=auto;html=1;fontSize=25;entryX=0.75;entryY=0;entryDx=0;entryDy=0;" edge="1" parent="1" source="IJlg6Fpexey7xzd7SDqX-61" target="IJlg6Fpexey7xzd7SDqX-41">
          <mxGeometry relative="1" as="geometry">
            <mxPoint x="918" y="200" as="targetPoint"/>
            <Array as="points">
              <mxPoint x="918" y="130"/>
              <mxPoint x="540" y="130"/>
            </Array>
          </mxGeometry>
        </mxCell>
        <mxCell id="IJlg6Fpexey7xzd7SDqX-61" value="" style="ellipse;whiteSpace=wrap;html=1;aspect=fixed;fontSize=25;fillColor=#ffe6cc;strokeColor=#d79b00;" vertex="1" parent="1">
          <mxGeometry x="898" y="280" width="40" height="40" as="geometry"/>
        </mxCell>
        <mxCell id="IJlg6Fpexey7xzd7SDqX-93" value="" style="edgeStyle=orthogonalEdgeStyle;rounded=0;orthogonalLoop=1;jettySize=auto;html=1;fontSize=25;entryX=0;entryY=0.5;entryDx=0;entryDy=0;" edge="1" parent="1" source="IJlg6Fpexey7xzd7SDqX-62" target="IJlg6Fpexey7xzd7SDqX-81">
          <mxGeometry relative="1" as="geometry">
            <mxPoint x="1017.9999999999995" y="406" as="targetPoint"/>
          </mxGeometry>
        </mxCell>
        <mxCell id="IJlg6Fpexey7xzd7SDqX-62" value="" style="ellipse;whiteSpace=wrap;html=1;aspect=fixed;fontSize=25;fillColor=#ffe6cc;strokeColor=#d79b00;" vertex="1" parent="1">
          <mxGeometry x="898" y="386" width="40" height="40" as="geometry"/>
        </mxCell>
        <mxCell id="IJlg6Fpexey7xzd7SDqX-63" value="&lt;font size=&quot;1&quot;&gt;нет в наличий&amp;nbsp;&lt;/font&gt;" style="text;html=1;resizable=0;points=[];autosize=1;align=left;verticalAlign=top;spacingTop=-4;fontSize=25;" vertex="1" parent="1">
          <mxGeometry x="930" y="250" width="90" height="40" as="geometry"/>
        </mxCell>
        <mxCell id="IJlg6Fpexey7xzd7SDqX-64" value="&lt;font size=&quot;1&quot;&gt;есть в наличий&amp;nbsp;&lt;/font&gt;" style="text;html=1;resizable=0;points=[];autosize=1;align=left;verticalAlign=top;spacingTop=-4;fontSize=25;" vertex="1" parent="1">
          <mxGeometry x="890" y="416" width="90" height="40" as="geometry"/>
        </mxCell>
        <mxCell id="IJlg6Fpexey7xzd7SDqX-91" value="" style="edgeStyle=orthogonalEdgeStyle;rounded=0;orthogonalLoop=1;jettySize=auto;html=1;fontSize=25;entryX=0;entryY=0.5;entryDx=0;entryDy=0;" edge="1" parent="1" source="IJlg6Fpexey7xzd7SDqX-70" target="IJlg6Fpexey7xzd7SDqX-53">
          <mxGeometry relative="1" as="geometry">
            <mxPoint x="840" y="370" as="targetPoint"/>
          </mxGeometry>
        </mxCell>
        <mxCell id="IJlg6Fpexey7xzd7SDqX-70" value="&lt;div style=&quot;&quot;&gt;&lt;span&gt;&lt;font size=&quot;1&quot;&gt;Ввести важную дату(определяет ваше счастливое число и дает номера на выбор)&lt;/font&gt;&lt;/span&gt;&lt;/div&gt;" style="rounded=1;whiteSpace=wrap;html=1;align=center;" vertex="1" parent="1">
          <mxGeometry x="655" y="450" width="166" height="60" as="geometry"/>
        </mxCell>
        <mxCell id="IJlg6Fpexey7xzd7SDqX-94" value="" style="endArrow=none;dashed=1;html=1;fontSize=25;" edge="1" parent="1">
          <mxGeometry width="50" height="50" relative="1" as="geometry">
            <mxPoint x="45" y="80" as="sourcePoint"/>
            <mxPoint x="1500" y="80" as="targetPoint"/>
          </mxGeometry>
        </mxCell>
        <mxCell id="IJlg6Fpexey7xzd7SDqX-95" value="" style="endArrow=none;dashed=1;html=1;fontSize=25;" edge="1" parent="1">
          <mxGeometry width="50" height="50" relative="1" as="geometry">
            <mxPoint x="41.5" y="760" as="sourcePoint"/>
            <mxPoint x="1496.5" y="760" as="targetPoint"/>
          </mxGeometry>
        </mxCell>
        <mxCell id="IJlg6Fpexey7xzd7SDqX-113" value="" style="rounded=0;whiteSpace=wrap;html=1;rotation=90;" vertex="1" parent="1">
          <mxGeometry x="-132" y="1017" width="403" height="60" as="geometry"/>
        </mxCell>
        <mxCell id="IJlg6Fpexey7xzd7SDqX-114" value="Admin case" style="text;html=1;resizable=0;points=[];autosize=1;align=left;verticalAlign=top;spacingTop=-4;rotation=-90;fontSize=25;" vertex="1" parent="1">
          <mxGeometry x="-10" y="1032" width="150" height="30" as="geometry"/>
        </mxCell>
        <mxCell id="IJlg6Fpexey7xzd7SDqX-115" value="" style="endArrow=none;html=1;fontSize=25;" edge="1" parent="1">
          <mxGeometry width="50" height="50" relative="1" as="geometry">
            <mxPoint x="40.5" y="830" as="sourcePoint"/>
            <mxPoint x="1495.5" y="830" as="targetPoint"/>
          </mxGeometry>
        </mxCell>
        <mxCell id="IJlg6Fpexey7xzd7SDqX-117" value="" style="endArrow=none;dashed=1;html=1;fontSize=25;entryX=0.5;entryY=1;entryDx=0;entryDy=0;exitX=0.5;exitY=0;exitDx=0;exitDy=0;" edge="1" parent="1" source="IJlg6Fpexey7xzd7SDqX-123" target="IJlg6Fpexey7xzd7SDqX-108">
          <mxGeometry width="50" height="50" relative="1" as="geometry">
            <mxPoint x="200" y="970" as="sourcePoint"/>
            <mxPoint x="90" y="1420" as="targetPoint"/>
            <Array as="points">
              <mxPoint x="200" y="880"/>
              <mxPoint x="1355" y="880"/>
            </Array>
          </mxGeometry>
        </mxCell>
        <mxCell id="IJlg6Fpexey7xzd7SDqX-119" value="" style="endArrow=none;html=1;fontSize=25;" edge="1" parent="1">
          <mxGeometry width="50" height="50" relative="1" as="geometry">
            <mxPoint x="40.5" y="1260" as="sourcePoint"/>
            <mxPoint x="1495.5" y="1260" as="targetPoint"/>
          </mxGeometry>
        </mxCell>
        <mxCell id="IJlg6Fpexey7xzd7SDqX-120" value="" style="endArrow=none;html=1;fontSize=25;" edge="1" parent="1">
          <mxGeometry width="50" height="50" relative="1" as="geometry">
            <mxPoint x="53" y="760" as="sourcePoint"/>
            <mxPoint x="1508" y="760" as="targetPoint"/>
          </mxGeometry>
        </mxCell>
        <mxCell id="IJlg6Fpexey7xzd7SDqX-121" value="" style="endArrow=none;html=1;fontSize=25;" edge="1" parent="1">
          <mxGeometry width="50" height="50" relative="1" as="geometry">
            <mxPoint x="41.5" y="80" as="sourcePoint"/>
            <mxPoint x="1496.5" y="80" as="targetPoint"/>
          </mxGeometry>
        </mxCell>
        <mxCell id="IJlg6Fpexey7xzd7SDqX-125" value="" style="edgeStyle=orthogonalEdgeStyle;rounded=0;orthogonalLoop=1;jettySize=auto;html=1;fontSize=25;" edge="1" parent="1" source="IJlg6Fpexey7xzd7SDqX-123">
          <mxGeometry relative="1" as="geometry">
            <mxPoint x="320" y="1047" as="targetPoint"/>
          </mxGeometry>
        </mxCell>
        <mxCell id="IJlg6Fpexey7xzd7SDqX-123" value="Получение уведомления" style="ellipse;whiteSpace=wrap;html=1;aspect=fixed;fillColor=#d5e8d4;strokeColor=#82b366;" vertex="1" parent="1">
          <mxGeometry x="160" y="1007" width="80" height="80" as="geometry"/>
        </mxCell>
        <mxCell id="IJlg6Fpexey7xzd7SDqX-128" value="" style="edgeStyle=orthogonalEdgeStyle;rounded=0;orthogonalLoop=1;jettySize=auto;html=1;fontSize=25;" edge="1" parent="1" source="IJlg6Fpexey7xzd7SDqX-126" target="IJlg6Fpexey7xzd7SDqX-132">
          <mxGeometry relative="1" as="geometry">
            <mxPoint x="480" y="1047" as="targetPoint"/>
          </mxGeometry>
        </mxCell>
        <mxCell id="IJlg6Fpexey7xzd7SDqX-126" value="&lt;font size=&quot;1&quot;&gt;Рассмотреть заявку&amp;nbsp;&lt;/font&gt;" style="rounded=0;whiteSpace=wrap;html=1;fontSize=25;align=center;" vertex="1" parent="1">
          <mxGeometry x="320" y="1017" width="120" height="60" as="geometry"/>
        </mxCell>
        <mxCell id="IJlg6Fpexey7xzd7SDqX-135" value="" style="edgeStyle=orthogonalEdgeStyle;rounded=0;orthogonalLoop=1;jettySize=auto;html=1;fontSize=25;" edge="1" parent="1" source="IJlg6Fpexey7xzd7SDqX-132" target="IJlg6Fpexey7xzd7SDqX-138">
          <mxGeometry relative="1" as="geometry">
            <mxPoint x="580.2758620689656" y="996.7241379310344" as="targetPoint"/>
            <Array as="points">
              <mxPoint x="503" y="997"/>
            </Array>
          </mxGeometry>
        </mxCell>
        <mxCell id="IJlg6Fpexey7xzd7SDqX-137" value="" style="edgeStyle=orthogonalEdgeStyle;rounded=0;orthogonalLoop=1;jettySize=auto;html=1;fontSize=25;" edge="1" parent="1" source="IJlg6Fpexey7xzd7SDqX-132" target="IJlg6Fpexey7xzd7SDqX-139">
          <mxGeometry relative="1" as="geometry">
            <mxPoint x="574.2758620689656" y="1096.7241379310344" as="targetPoint"/>
            <Array as="points">
              <mxPoint x="503" y="1097"/>
            </Array>
          </mxGeometry>
        </mxCell>
        <mxCell id="IJlg6Fpexey7xzd7SDqX-132" value="" style="rhombus;whiteSpace=wrap;html=1;fontSize=25;" vertex="1" parent="1">
          <mxGeometry x="478" y="1022" width="50" height="50" as="geometry"/>
        </mxCell>
        <mxCell id="IJlg6Fpexey7xzd7SDqX-145" value="" style="edgeStyle=orthogonalEdgeStyle;rounded=0;orthogonalLoop=1;jettySize=auto;html=1;fontSize=15;" edge="1" parent="1" source="IJlg6Fpexey7xzd7SDqX-138">
          <mxGeometry relative="1" as="geometry">
            <mxPoint x="655" y="960" as="targetPoint"/>
          </mxGeometry>
        </mxCell>
        <mxCell id="IJlg6Fpexey7xzd7SDqX-138" value="" style="ellipse;whiteSpace=wrap;html=1;aspect=fixed;fontSize=25;align=center;fillColor=#ffe6cc;strokeColor=#d79b00;" vertex="1" parent="1">
          <mxGeometry x="584" y="977" width="40" height="40" as="geometry"/>
        </mxCell>
        <mxCell id="IJlg6Fpexey7xzd7SDqX-148" value="" style="edgeStyle=orthogonalEdgeStyle;rounded=0;orthogonalLoop=1;jettySize=auto;html=1;fontSize=15;" edge="1" parent="1" source="IJlg6Fpexey7xzd7SDqX-139" target="IJlg6Fpexey7xzd7SDqX-151">
          <mxGeometry relative="1" as="geometry">
            <mxPoint x="550" y="1160" as="targetPoint"/>
            <Array as="points">
              <mxPoint x="640" y="1107"/>
              <mxPoint x="640" y="1107"/>
            </Array>
          </mxGeometry>
        </mxCell>
        <mxCell id="IJlg6Fpexey7xzd7SDqX-139" value="" style="ellipse;whiteSpace=wrap;html=1;aspect=fixed;fontSize=25;align=center;fillColor=#ffe6cc;strokeColor=#d79b00;" vertex="1" parent="1">
          <mxGeometry x="584" y="1077" width="40" height="40" as="geometry"/>
        </mxCell>
        <mxCell id="IJlg6Fpexey7xzd7SDqX-142" value="&lt;font size=&quot;1&quot;&gt;Отказ&lt;/font&gt;" style="text;html=1;resizable=0;points=[];autosize=1;align=left;verticalAlign=top;spacingTop=-4;fontSize=15;" vertex="1" parent="1">
          <mxGeometry x="584" y="950" width="40" height="20" as="geometry"/>
        </mxCell>
        <mxCell id="IJlg6Fpexey7xzd7SDqX-143" value="&lt;font size=&quot;1&quot;&gt;Одобрение&lt;/font&gt;" style="text;html=1;resizable=0;points=[];autosize=1;align=left;verticalAlign=top;spacingTop=-4;fontSize=15;" vertex="1" parent="1">
          <mxGeometry x="584" y="1052" width="70" height="20" as="geometry"/>
        </mxCell>
        <mxCell id="IJlg6Fpexey7xzd7SDqX-146" value="&lt;span style=&quot;font-family: &amp;#34;tahoma&amp;#34;&quot;&gt;&lt;font style=&quot;font-size: 10px&quot;&gt;Cвязaтьcя&lt;/font&gt;&lt;/span&gt;&lt;font size=&quot;1&quot;&gt;&amp;nbsp;с клиентом&lt;/font&gt;" style="rounded=1;whiteSpace=wrap;html=1;fontSize=15;align=center;" vertex="1" parent="1">
          <mxGeometry x="648" y="900" width="120" height="60" as="geometry"/>
        </mxCell>
        <mxCell id="IJlg6Fpexey7xzd7SDqX-154" value="" style="edgeStyle=orthogonalEdgeStyle;rounded=0;orthogonalLoop=1;jettySize=auto;html=1;fontSize=15;entryX=0;entryY=0.5;entryDx=0;entryDy=0;" edge="1" parent="1" source="IJlg6Fpexey7xzd7SDqX-151" target="IJlg6Fpexey7xzd7SDqX-152">
          <mxGeometry relative="1" as="geometry">
            <mxPoint x="820" y="1060" as="targetPoint"/>
            <Array as="points">
              <mxPoint x="715" y="1032"/>
            </Array>
          </mxGeometry>
        </mxCell>
        <mxCell id="IJlg6Fpexey7xzd7SDqX-151" value="&lt;font size=&quot;1&quot;&gt;Оформление номера&lt;/font&gt;" style="rounded=1;whiteSpace=wrap;html=1;" vertex="1" parent="1">
          <mxGeometry x="654.7758620689656" y="1077.1724137931035" width="120" height="60" as="geometry"/>
        </mxCell>
        <mxCell id="IJlg6Fpexey7xzd7SDqX-158" value="" style="edgeStyle=orthogonalEdgeStyle;rounded=0;orthogonalLoop=1;jettySize=auto;html=1;fontSize=15;" edge="1" parent="1" source="IJlg6Fpexey7xzd7SDqX-152" target="IJlg6Fpexey7xzd7SDqX-155">
          <mxGeometry relative="1" as="geometry">
            <mxPoint x="820.9999999999998" y="926.9999999999998" as="targetPoint"/>
            <Array as="points">
              <mxPoint x="821" y="975"/>
            </Array>
          </mxGeometry>
        </mxCell>
        <mxCell id="IJlg6Fpexey7xzd7SDqX-160" value="" style="edgeStyle=orthogonalEdgeStyle;rounded=0;orthogonalLoop=1;jettySize=auto;html=1;fontSize=15;" edge="1" parent="1" source="IJlg6Fpexey7xzd7SDqX-152" target="IJlg6Fpexey7xzd7SDqX-156">
          <mxGeometry relative="1" as="geometry">
            <mxPoint x="870" y="1090" as="targetPoint"/>
            <Array as="points">
              <mxPoint x="821" y="1090"/>
            </Array>
          </mxGeometry>
        </mxCell>
        <mxCell id="IJlg6Fpexey7xzd7SDqX-152" value="" style="rhombus;whiteSpace=wrap;html=1;fontSize=25;" vertex="1" parent="1">
          <mxGeometry x="796" y="1007" width="50" height="50" as="geometry"/>
        </mxCell>
        <mxCell id="IJlg6Fpexey7xzd7SDqX-167" value="" style="edgeStyle=orthogonalEdgeStyle;rounded=0;orthogonalLoop=1;jettySize=auto;html=1;fontSize=15;" edge="1" parent="1" source="IJlg6Fpexey7xzd7SDqX-155" target="IJlg6Fpexey7xzd7SDqX-166">
          <mxGeometry relative="1" as="geometry"/>
        </mxCell>
        <mxCell id="IJlg6Fpexey7xzd7SDqX-155" value="" style="ellipse;whiteSpace=wrap;html=1;aspect=fixed;fontSize=25;align=center;fillColor=#ffe6cc;strokeColor=#d79b00;" vertex="1" parent="1">
          <mxGeometry x="870" y="957" width="40" height="40" as="geometry"/>
        </mxCell>
        <mxCell id="IJlg6Fpexey7xzd7SDqX-164" value="" style="edgeStyle=orthogonalEdgeStyle;rounded=0;orthogonalLoop=1;jettySize=auto;html=1;fontSize=15;" edge="1" parent="1" source="IJlg6Fpexey7xzd7SDqX-156" target="IJlg6Fpexey7xzd7SDqX-165">
          <mxGeometry relative="1" as="geometry">
            <mxPoint x="980" y="1082" as="targetPoint"/>
          </mxGeometry>
        </mxCell>
        <mxCell id="IJlg6Fpexey7xzd7SDqX-156" value="" style="ellipse;whiteSpace=wrap;html=1;aspect=fixed;fontSize=25;align=center;fillColor=#ffe6cc;strokeColor=#d79b00;" vertex="1" parent="1">
          <mxGeometry x="873" y="1062" width="40" height="40" as="geometry"/>
        </mxCell>
        <mxCell id="IJlg6Fpexey7xzd7SDqX-161" value="&lt;font size=&quot;1&quot;&gt;Доставка&lt;/font&gt;&lt;span style=&quot;font-family: &amp;#34;helvetica&amp;#34; , &amp;#34;arial&amp;#34; , sans-serif ; font-size: 0px&quot;&gt;%3CmxGraphModel%3E%3Croot%3E%3CmxCell%20id%3D%220%22%2F%3E%3CmxCell%20id%3D%221%22%20parent%3D%220%22%2F%3E%3CmxCell%20id%3D%222%22%20value%3D%22%26lt%3Bfont%20size%3D%26quot%3B1%26quot%3B%26gt%3B%D0%9E%D1%82%D0%BA%D0%B0%D0%B7%26lt%3B%2Ffont%26gt%3B%22%20style%3D%22text%3Bhtml%3D1%3Bresizable%3D0%3Bpoints%3D%5B%5D%3Bautosize%3D1%3Balign%3Dleft%3BverticalAlign%3Dtop%3BspacingTop%3D-4%3BfontSize%3D15%3B%22%20vertex%3D%221%22%20parent%3D%221%22%3E%3CmxGeometry%20x%3D%22584%22%20y%3D%22950%22%20width%3D%2240%22%20height%3D%2220%22%20as%3D%22geometry%22%2F%3E%3C%2FmxCell%3E%3C%2Froot%3E%3C%2FmxGraphModel%3E&lt;/span&gt;" style="text;html=1;resizable=0;points=[];autosize=1;align=left;verticalAlign=top;spacingTop=-4;fontSize=15;" vertex="1" parent="1">
          <mxGeometry x="870" y="930" width="60" height="20" as="geometry"/>
        </mxCell>
        <mxCell id="IJlg6Fpexey7xzd7SDqX-162" value="&lt;font size=&quot;1&quot;&gt;Резерв номера&lt;/font&gt;" style="text;html=1;resizable=0;points=[];autosize=1;align=left;verticalAlign=top;spacingTop=-4;fontSize=15;" vertex="1" parent="1">
          <mxGeometry x="868" y="1037" width="90" height="20" as="geometry"/>
        </mxCell>
        <mxCell id="IJlg6Fpexey7xzd7SDqX-165" value="&lt;font size=&quot;1&quot;&gt;Связаться с клиентом и ожидать его&lt;/font&gt;&lt;span style=&quot;font-family: &amp;#34;helvetica&amp;#34; , &amp;#34;arial&amp;#34; , sans-serif ; font-size: 0px ; white-space: nowrap&quot;&gt;%3CmxGraphModel%3E%3Croot%3E%3CmxCell%20id%3D%220%22%2F%3E%3CmxCell%20id%3D%221%22%20parent%3D%220%22%2F%3E%3CmxCell%20id%3D%222%22%20value%3D%22%26lt%3Bfont%20size%3D%26quot%3B1%26quot%3B%26gt%3B%D0%94%D0%BE%D1%81%D1%82%D0%B0%D0%B2%D0%BA%D0%B0%26lt%3B%2Ffont%26gt%3B%26lt%3Bspan%20style%3D%26quot%3Bfont-family%3A%20%26amp%3B%2334%3Bhelvetica%26amp%3B%2334%3B%20%2C%20%26amp%3B%2334%3Barial%26amp%3B%2334%3B%20%2C%20sans-serif%20%3B%20font-size%3A%200px%26quot%3B%26gt%3B%253CmxGraphModel%253E%253Croot%253E%253CmxCell%2520id%253D%25220%2522%252F%253E%253CmxCell%2520id%253D%25221%2522%2520parent%253D%25220%2522%252F%253E%253CmxCell%2520id%253D%25222%2522%2520value%253D%2522%2526lt%253Bfont%2520size%253D%2526quot%253B1%2526quot%253B%2526gt%253B%25D0%259E%25D1%2582%25D0%25BA%25D0%25B0%25D0%25B7%2526lt%253B%252Ffont%2526gt%253B%2522%2520style%253D%2522text%253Bhtml%253D1%253Bresizable%253D0%253Bpoints%253D%255B%255D%253Bautosize%253D1%253Balign%253Dleft%253BverticalAlign%253Dtop%253BspacingTop%253D-4%253BfontSize%253D15%253B%2522%2520vertex%253D%25221%2522%2520parent%253D%25221%2522%253E%253CmxGeometry%2520x%253D%2522584%2522%2520y%253D%2522950%2522%2520width%253D%252240%2522%2520height%253D%252220%2522%2520as%253D%2522geometry%2522%252F%253E%253C%252FmxCell%253E%253C%252Froot%253E%253C%252FmxGraphModel%253E%26lt%3B%2Fspan%26gt%3B%22%20style%3D%22text%3Bhtml%3D1%3Bresizable%3D0%3Bpoints%3D%5B%5D%3Bautosize%3D1%3Balign%3Dleft%3BverticalAlign%3Dtop%3BspacingTop%3D-4%3BfontSize%3D15%3B%22%20vertex%3D%221%22%20parent%3D%221%22%3E%3CmxGeometry%20x%3D%22870%22%20y%3D%22930%22%20width%3D%2260%22%20height%3D%2220%22%20as%3D%22geometry%22%2F%3E%3C%2FmxCell%3E%3C%2Froot%3E%3C%2FmxGraphModel%3E&lt;/span&gt;" style="rounded=1;whiteSpace=wrap;html=1;fontSize=15;align=center;" vertex="1" parent="1">
          <mxGeometry x="958" y="1102" width="120" height="60" as="geometry"/>
        </mxCell>
        <mxCell id="IJlg6Fpexey7xzd7SDqX-166" value="&lt;span&gt;&lt;font style=&quot;font-size: 10px&quot;&gt;Отправка симкарты со всеми документами через почтовую службу или доставщики компании&lt;/font&gt;&lt;/span&gt;" style="rounded=1;whiteSpace=wrap;html=1;fontSize=15;align=center;" vertex="1" parent="1">
          <mxGeometry x="960" y="900" width="170" height="70" as="geometry"/>
        </mxCell>
      </root>
    </mxGraphModel>
  </diagram>
</mxfile>
